<?xml version="1.0" encoding="UTF-8" standalone="no"?>
<!DOCTYPE svg PUBLIC "-//W3C//DTD SVG 1.1//EN" "http://www.w3.org/Graphics/SVG/1.1/DTD/svg11.dtd">
<svg xmlns="http://www.w3.org/2000/svg" xmlns:xlink="http://www.w3.org/1999/xlink" version="1.1" width="500" height="500" viewBox="0 0 500 500" xml:space="preserve">
    <defs></defs>
    <g transform="matrix(2.96 0 0 2.96 252.9 251.24)">
        <path style="stroke: rgb(232,89,170); stroke-width: 10; stroke-dasharray: none; stroke-linecap: butt; stroke-dashoffset: 0; stroke-linejoin: miter; stroke-miterlimit: 4; fill: rgb(255,255,255); fill-opacity: 0; fill-rule: nonzero; opacity: 1;" transform=" translate(0, 0)" d="M -29.28701 20.77331 C -67.74211 20.860889999999998 -29.28701 70.38636 -29.28701 70.38636 L -1.6204900000000002 31.173209999999997 L -1.6204900000000002 31.173209999999997 C -0.21503000000000028 29.181179999999998 -0.25497000000000014 26.509969999999996 -1.7193600000000002 24.56085 L -12.94366 9.621179999999999 L -12.94366 9.621179999999999 C -22.70185 -3.3670800000000014 -23.04549 -21.144840000000002 -13.79651 -34.5005 L 11.05494 -70.38636 L 44.77065 -25.104549999999996 L 44.77065 -25.104549999999996 C 46.60486 -22.641109999999998 46.89264 -19.353739999999995 45.51433 -16.609089999999995 C 44.13603 -13.864429999999995 41.327420000000004 -12.131999999999994 38.25612 -12.131999999999994 C 29.27973 -12.131999999999994 17.855230000000002 -12.131999999999994 11.054930000000002 -12.131999999999994" stroke-linecap="round" />
    </g>
</svg>